<svg xmlns="http://www.w3.org/2000/svg" xmlns:xlink="http://www.w3.org/1999/xlink" version="1.1" id="Layer_1" x="0px" y="0px" width="60px" height="70px" viewBox="0 0 60 70" enable-background="new 0 0 60 70" xml:space="preserve">
<g id="Brand_1_">
	<polyline fill="#FDD106" points="30,70 0,52.499 0,17.499 30,0 60,17.499 60,52.499 30,70  "/>
	<path d="M39.443,40.052l2.286,2.352L26.234,54.396l-3.031-2.004l4.25-3.124l-3.835-3.075l-7.171,1.562l-3.153-2.207L39.443,40.052    M27.533,45.324l2.514,2.038l5.049-3.708L27.533,45.324z"/>
	<path d="M12.449,34.702l11.623-19.736c3.322,9.25,1.299,15.354,1.299,15.354c-2.578,8.573-7.559,12.598-7.559,12.598   c-1.457,1.227-2.95,0.716-3.479-0.154c-0.605-1-0.853-2.504-0.853-2.504C13.328,39.669,12.449,34.702,12.449,34.702 M15.026,35.118   c0,0,0.362,2.378,0.425,2.691c0,0,0.581,3.499,3.397-0.334c0,0,6.084-7.682,3.926-15.161L15.026,35.118"/>
	<path d="M37.423,20.961l1.629-2.249l9.438,17.592l-1.304,2.519l-0.558-0.625c0.013,1.041-0.174,1.523-0.174,1.523   c-0.737,2.627-2.579,2.509-2.579,2.509c-3.45-0.05-5.885-5.801-5.885-5.801c-2.959-6.189-0.464-9.41-0.464-9.41   C38.66,25.643,40,25.812,40,25.812L37.423,20.961 M43.848,38.578c1.011-0.535,1.105-3.14,0.061-5.766   c-1.12-2.812-2.501-4.502-3.844-3.862c-1.145,0.545-1.267,3.024-0.052,5.593C41.531,37.758,42.844,39.109,43.848,38.578z"/>
	<path d="M34.25,26.02l3.462-1.811c-0.442,3.125-3.605,9.347-3.605,9.347c0.227,0.245,2.122,3.852,2.122,3.852l-3.606,1.708   l-0.886-1.562c-4.139,6.032-6.522,4.576-6.522,4.576c-1.737-0.587-1.401-4.777-1.401-4.777c0.376-3.824,3.473-8.439,3.473-8.439   c-1.915-3.558,0.701-7.304,0.701-7.304c2.328-3.684,4.533-4.001,4.533-4.001c2.252-0.515,2.161,1.826,2.161,1.826   c0.373,3.435-3.583,8.479-3.583,8.479c0.195,0.864,1.484,2.852,1.484,2.852C33.276,29.715,34.25,26.02,34.25,26.02 M28.461,31.412   c0,0-2.834,4.107-1.726,5.954c0,0,1.493,1.665,3.56-2.415L28.461,31.412 M31.783,20.743c0,0-0.89-0.26-1.898,1.521   c0,0-0.974,1.843,0.017,3.547c0,0,1.777-2.485,2.014-3.616C31.916,22.196,32.388,20.977,31.783,20.743"/>
</g>
</svg>